<?xml version="1.0" encoding="UTF-8" standalone="no"?>
<!-- Created with Inkscape (http://www.inkscape.org/) -->

<svg
   xmlns:dc="http://purl.org/dc/elements/1.1/"
   xmlns:cc="http://creativecommons.org/ns#"
   xmlns:rdf="http://www.w3.org/1999/02/22-rdf-syntax-ns#"
   xmlns:svg="http://www.w3.org/2000/svg"
   xmlns="http://www.w3.org/2000/svg"
   xmlns:sodipodi="http://sodipodi.sourceforge.net/DTD/sodipodi-0.dtd"
   xmlns:inkscape="http://www.inkscape.org/namespaces/inkscape"
   width="1000mm"
   height="1000mm"
   viewBox="0 0 1000 1000"
   version="1.1"
   id="svg8"
   inkscape:version="0.92.1 r15371"
   sodipodi:docname="drawing.svg">
  <defs
     id="defs2" />
  <sodipodi:namedview
     id="base"
     pagecolor="#ffffff"
     bordercolor="#666666"
     borderopacity="1.0"
     inkscape:pageopacity="0.0"
     inkscape:pageshadow="2"
     inkscape:zoom="0.16"
     inkscape:cx="4112.1801"
     inkscape:cy="1739.2558"
     inkscape:document-units="mm"
     inkscape:current-layer="layer1"
     showgrid="false"
     inkscape:window-width="1366"
     inkscape:window-height="745"
     inkscape:window-x="-8"
     inkscape:window-y="-8"
     inkscape:window-maximized="1" />
  <metadata
     id="metadata5">
    <rdf:RDF>
      <cc:Work
         rdf:about="">
        <dc:format>image/svg+xml</dc:format>
        <dc:type
           rdf:resource="http://purl.org/dc/dcmitype/StillImage" />
        <dc:title></dc:title>
      </cc:Work>
    </rdf:RDF>
  </metadata>
  <g
     inkscape:label="Layer 1"
     inkscape:groupmode="layer"
     id="layer1"
     transform="translate(0,703)">
    <path
       style="fill:#2b1100;stroke-width:8.22006989"
       d="m 201.5937,-12.156523 c -13.61924,-6.79265 -15.52843,-20.6651 -15.40924,-111.966067 0.0747,-57.31704 3.55182,-108.82829 7.72668,-114.46948 13.99363,-18.90852 40.77404,-6.7794 43.77744,19.82721 2.51994,22.32373 5.54927,24.65917 31.98576,24.65917 44.64069,0 81.61743,13.93103 92.80998,34.96625 13.02931,24.48718 13.02931,95.745367 0,120.232547 -5.55908,10.44769 -22.14499,22.58915 -36.85759,26.98102 -33.7726,10.0814905 -103.61763,9.9515905 -124.03303,-0.23065 z m 113.25845,-86.86665 v -45.639607 l -37.75283,-2.339 -37.75281,-2.33902 v 50.317627 50.31765 l 37.75281,-2.33903 37.75283,-2.339 z m 232.71494,85.44538 c -10.92474,-7.04153 -15.17134,-24.54714 -17.03722,-70.23218 l -2.48536,-60.852807 -37.75282,-2.339 -37.75282,-2.33902 v 68.896767 c 0,67.51975 -0.42314,68.89679 -21.17151,68.89679 -26.57413,0 -31.84563,-15.42989 -32.00527,-93.680937 -0.16373,-80.19857 6.23136,-88.87751 65.48829,-88.87751 62.58237,0 102.45487,12.61738 112.68503,35.65837 4.53678,10.21803 8.24872,45.32002 8.24872,78.004457 0,64.73705 -11.1775,84.2933005 -38.21704,66.86507 z m 121.31253,4.3730105 C 628.35293,-15.992923 620.45172,-34.319403 623.20139,-115.15282 l 2.55632,-75.14956 66.51795,-2.27148 c 87.40552,-2.98472 108.65978,1.7612 105.0567,23.4585 -2.55306,15.37458 -8.42262,17.04119 -67.1993,19.08087 -57.10961,1.98185 -64.40184,3.91976 -64.40184,17.11486 0,12.98778 6.29138,14.87995 49.47439,14.87995 46.22585,0 49.28803,1.1238 46.63585,17.11487 -2.47811,14.941407 -8.83181,17.408927 -50.0326,19.430607 -38.77176,1.90247 -46.68357,4.61741 -44.33344,15.21319 2.26276,10.20174 15.82301,13.69238 64.87844,16.70076 51.65438,3.16774 62.54853,6.19317 65.1942,18.10502 1.74705,7.86595 -2.21354,17.22669 -8.80132,20.80168 -12.03975,6.5335705 -84.34002,7.4194805 -119.86712,1.4687705 z m 212.34279,-0.0952 C 842.5268,-15.690163 834.50847,-38.000433 834.50847,-139.27762 c 0,-93.04668 0.18583,-93.89647 19.9868,-91.48836 12.84439,1.56209 21.00112,8.54675 22.82538,19.54555 1.97861,11.92984 8.86494,17.11486 22.73047,17.11486 10.94049,0 27.50038,4.76403 36.79964,10.58676 14.36554,8.99496 15.12507,12.42615 5.05169,22.8198 -6.52088,6.72818 -23.54952,12.23304 -37.84135,12.23304 h -25.98528 l 2.64464,47.54127 c 2.62895,47.259487 2.81123,47.555097 30.75837,49.876567 33.51649,2.78408 46.6144,23.21988 23.97002,37.39867 -15.77429,9.8770305 -19.12619,10.1458705 -54.22644,4.3494805 z M 112.398,-16.297403 c -3.46319,-2.96556 -6.2967,-33.91668 -6.2967,-68.78028 0,-34.863577 -3.56968,-63.388347 -7.932639,-63.388347 -13.47138,0 -19.58297,-24.17021 -8.89899,-35.19382 13.105569,-13.52217 47.301549,-13.42432 60.479969,0.17307 6.73541,6.9495 9.41336,37.83373 7.74995,89.377567 -2.34463,72.65218 -3.94754,78.93107 -20.67329,80.98128 -9.97236,1.22237 -20.9651,-0.20377 -24.4283,-3.16942 z m -0.37469,-198.092517 c -10.47658,-8.97117 -6.31953,-25.70217 7.51562,-30.24835 17.53688,-5.76255 40.17417,10.55531 33.94056,24.46567 -5.00542,11.1696 -30.94059,14.78728 -41.45618,5.78268 z m 460.61611,-93.32954 c -3.2002,-8.63412 -9.94024,-15.69841 -14.97787,-15.69841 -15.05839,0 40.21399,-52.10102 55.90467,-52.69702 7.95167,-0.30207 19.58705,4.74337 25.85643,11.21199 9.43862,9.73864 8.42886,15.16753 -5.87147,31.56909 -9.4987,10.89434 -25.78052,24.64649 -36.18177,30.56031 -17.07612,9.70894 -19.47612,9.22893 -24.72999,-4.94596 z M 385.46299,-349.7967 c -13.08569,-26.81829 -17.99603,-75.61329 -6.07295,-60.34821 3.58943,4.59555 14.85923,7.77651 25.04399,7.06884 14.6955,-1.02111 20.91314,5.66021 30.12258,32.36886 9.76499,28.31977 9.6458,34.71784 -0.75176,40.35594 -22.6475,12.28072 -35.35572,7.16886 -48.34188,-19.44543 z m 138.14,-124.85293 c -25.77647,-3.89966 -31.09053,-7.95397 -31.09053,-23.72012 0,-15.6402 4.82014,-19.42017 27.1488,-21.29019 14.93183,-1.25052 38.04231,1.27292 51.3566,5.60762 23.546,7.66582 23.80792,8.40383 9.58237,26.99512 -8.04398,10.51262 -17.1637,18.66326 -20.26606,18.11251 -3.10234,-0.55073 -19.63137,-3.11796 -36.73118,-5.70494 z"
       id="path4625"
       inkscape:connector-curvature="0" />
  </g>
</svg>
